<?xml version="1.0" encoding="UTF-8"?>
<svg version="1.1" xmlns="http://www.w3.org/2000/svg" width="500" height="500">
<path d="M0 0 C165 0 330 0 500 0 C500 165 500 330 500 500 C335 500 170 500 0 500 C0 335 0 170 0 0 Z " fill="#FEFEFE" transform="translate(0,0)"/>
<path d="M0 0 C0 0.66 0 1.32 0 2 C0.72574219 2.24363281 1.45148438 2.48726562 2.19921875 2.73828125 C5.34439883 4.15514759 7.30204281 5.83115811 9.8125 8.1875 C12.81404024 10.97211476 15.81763807 13.72375931 18.9375 16.375 C23.2084008 20.08507544 27.1442025 24.11153268 31.09375 28.15625 C33.21840272 30.28502753 35.43253736 32.26744685 37.7109375 34.23046875 C42.70846863 38.56347224 47.42279405 43.16316743 52.125 47.8125 C52.99253906 48.65103516 53.86007812 49.48957031 54.75390625 50.35351562 C64.12283685 59.62975514 69.20502136 67.52136653 69.3125 80.6875 C69.3125 93.0858569 65.15102372 99.75316647 57 109 C56.39285156 109.6909375 55.78570312 110.381875 55.16015625 111.09375 C46.53141885 120.28800718 32.63466288 131.01455298 20 133 C19.67 133.99 19.34 134.98 19 136 C16.8890544 136.51071264 14.77258853 137.00468038 12.63916016 137.41137695 C9.9339535 138.01473063 7.48538975 138.86476761 4.8984375 139.85546875 C0.11888597 141.63106292 -4.6885148 143.12778484 -9.58740234 144.53491211 C-23.33045496 148.49885545 -37.96641558 153.04329095 -45.8203125 166.00390625 C-47.32636266 168.96871513 -48.71072434 171.93532835 -50 175 C-50.37382812 175.79148437 -50.74765625 176.58296875 -51.1328125 177.3984375 C-54.2860309 186.85809269 -52.24191644 197.83020385 -48.61328125 206.8046875 C-46.05869394 211.86437859 -42.9621737 215.96390515 -39 220 C-38.3709375 220.64195312 -37.741875 221.28390625 -37.09375 221.9453125 C-32.47776136 226.01267954 -28.68608253 226.61717219 -22.61328125 226.40625 C-12.7001972 224.86520255 -5.31714998 216.61632933 1.48828125 209.81811523 C2.52195328 208.79692848 2.52195328 208.79692848 3.57650757 207.75511169 C5.82720885 205.52827963 8.07038976 203.29407351 10.3125 201.05859375 C11.8922664 199.48781146 13.47210161 197.91709837 15.05200195 196.34645081 C18.35380393 193.06107901 21.65124008 189.77139184 24.94628906 186.47924805 C29.14026811 182.29064511 33.35015542 178.11843399 37.56422424 173.95005703 C40.83128329 170.71294453 44.08683041 167.46443408 47.33944702 164.21281624 C48.88527697 162.67115394 50.43517009 161.13355335 51.9894104 159.60037041 C61.02108151 150.68138947 68.72328444 142.08148126 75 131 C75.35757322 130.38119209 75.71514645 129.76238419 76.08355522 129.12482452 C78.68858727 124.61253825 80.54506857 120.31840443 82.125 115.375 C82.38361816 114.56828857 82.64223633 113.76157715 82.90869141 112.93041992 C85.74184054 103.45849362 86.43280965 93.8280396 87 84 C90 84 90 84 91.4375 85.29296875 C91.953125 85.91816406 92.46875 86.54335937 93 87.1875 C93.60714844 87.91710937 94.21429688 88.64671875 94.83984375 89.3984375 C95.55269531 90.25695312 96.26554687 91.11546875 97 92 C97.89434129 93.01548846 98.79164571 94.02837257 99.69140625 95.0390625 C108.25866356 104.74158041 114.68017525 113.76293409 116 127 C116.12890625 127.77601563 116.2578125 128.55203125 116.390625 129.3515625 C116.97250502 135.15096668 115.13411757 139.66715098 112.625 144.8125 C112.32803223 145.42762451 112.03106445 146.04274902 111.72509766 146.67651367 C104.8290725 159.83628784 94.18042751 170.22490452 83.6875 180.5 C82.42572017 181.7466755 81.16464899 182.99406865 79.90429688 184.2421875 C77.09467529 187.02230379 74.27772656 189.79477507 71.4559021 192.5625 C70.04571622 193.95486162 68.65110476 195.36294248 67.25708008 196.77148438 C65 199 65 199 62.625 200.8125 C60.42724889 202.64395926 58.78125981 204.34472054 56.94726562 206.50830078 C49.87575031 214.66712251 42.10586144 222.19889794 34.49707031 229.85302734 C32.50619884 231.85718317 30.52283516 233.86832946 28.54589844 235.88623047 C-2.4821192 267.54136881 -2.4821192 267.54136881 -27.625 268.4375 C-46.6908052 267.9638154 -59.63076482 256.38716161 -72.49670982 243.50114441 C-75.58126963 240.42098745 -78.68515298 237.36026244 -81.78442383 234.29492188 C-89.63007831 226.53129671 -97.46271952 218.75467061 -105.28827381 210.97078705 C-110.01607748 206.26904809 -114.74840535 201.57210452 -119.49145508 196.88574219 C-124.0924654 192.33935366 -128.68088655 187.78059395 -133.26111412 183.21327209 C-135.00007467 181.48348704 -136.74340003 179.75807757 -138.49131203 178.03733826 C-152.90643382 163.83749162 -165.13166936 151.15248612 -165.375 129.9375 C-165.18921159 112.22446884 -155.89319262 101.35276868 -143.75585938 89.35546875 C-142.35810152 87.98694995 -140.96031485 86.61846058 -139.5625 85.25 C-138.16774654 83.86676538 -136.77386012 82.48265594 -135.38085938 81.09765625 C-134.02681264 79.75703336 -132.67201986 78.41716348 -131.31640625 77.078125 C-130.70156876 76.47067444 -130.08673126 75.86322388 -129.45326233 75.23736572 C-126.36974469 72.22009294 -123.23408075 69.30473661 -119.9699707 66.4831543 C-116.19320219 63.21153431 -112.66037202 59.75849215 -109.1640625 56.19140625 C-107.92330321 54.93802617 -106.68241424 53.68477446 -105.44140625 52.43164062 C-103.51715767 50.48239216 -101.59457267 48.53155095 -99.67431641 46.57836914 C-97.80020162 44.67424016 -95.92006678 42.77622603 -94.0390625 40.87890625 C-93.46201569 40.28839981 -92.88496887 39.69789337 -92.29043579 39.0894928 C-90.89778729 37.68804268 -89.45334043 36.33840722 -88 35 C-87.34 35 -86.68 35 -86 35 C-85.67708984 34.16855469 -85.67708984 34.16855469 -85.34765625 33.3203125 C-83.53289173 30.19576141 -81.15315214 28.24721243 -78.4375 25.875 C-74.71412066 22.83511822 -74.71412066 22.83511822 -72 19 C-71.34 19 -70.68 19 -70 19 C-70 18.34 -70 17.68 -70 17 C-68.53125 15.51953125 -68.53125 15.51953125 -66.5 13.8125 C-63.62268171 11.37589772 -60.79305415 8.90759077 -58 6.375 C-40.46409101 -8.845488 -20.48235893 -9.49251393 0 0 Z " fill="#1595AA" transform="translate(275,119)"/>
<path d="M0 0 C6.89251462 4.22541114 13.49253414 10.41478611 18.375 16.8125 C20.21604889 19.02175867 21.93291612 20.67631142 24.109375 22.51953125 C28.95605802 26.71790386 33.47869276 31.20647504 38 35.75 C38.81404297 36.56017578 39.62808594 37.37035156 40.46679688 38.20507812 C41.23958984 38.97916016 42.01238281 39.75324219 42.80859375 40.55078125 C43.50654053 41.24985596 44.2044873 41.94893066 44.92358398 42.66918945 C47.21964654 45.14652911 47.5421701 46.26130757 47.9375 49.6875 C47.48475608 54.21493921 45.75206574 56.39823878 42.5625 59.4375 C31.22853527 66.67864413 18.38846459 69.80367819 5.4375 72.8125 C-20.36418102 78.81942484 -44.73094063 87.05593413 -59.75 110.375 C-64.50529763 118.70628145 -65.04986126 126.95302102 -64.4375 136.4375 C-64.1075 137.4275 -63.7775 138.4175 -63.4375 139.4375 C-63.30968214 142.11144964 -63.39358129 144.75845857 -63.4375 147.4375 C-62.7775 147.4375 -62.1175 147.4375 -61.4375 147.4375 C-60.76221777 149.01717807 -60.09760306 150.60141903 -59.4375 152.1875 C-59.06625 153.06921875 -58.695 153.9509375 -58.3125 154.859375 C-57.4375 157.4375 -57.4375 157.4375 -57.4375 161.4375 C-56.7775 161.4375 -56.1175 161.4375 -55.4375 161.4375 C-54.7775 163.4175 -54.1175 165.3975 -53.4375 167.4375 C-56.40570258 166.09275572 -58.5777735 164.58309865 -60.94140625 162.34765625 C-61.92089233 161.42617798 -61.92089233 161.42617798 -62.92016602 160.48608398 C-63.60651123 159.83067627 -64.29285645 159.17526855 -65 158.5 C-65.71019287 157.828479 -66.42038574 157.15695801 -67.15209961 156.46508789 C-72.22939747 151.64483936 -77.18475041 146.71801871 -82.10546875 141.73828125 C-84.62786744 139.24968355 -87.25061368 136.9490749 -89.96875 134.6796875 C-95.67422516 129.85431223 -100.48049962 124.00459273 -105.4375 118.4375 C-106.11941406 117.68339844 -106.80132812 116.92929687 -107.50390625 116.15234375 C-108.12136719 115.46269531 -108.73882812 114.77304687 -109.375 114.0625 C-109.92027344 113.45664062 -110.46554688 112.85078125 -111.02734375 112.2265625 C-114.42499558 107.91596821 -114.85714625 104.09128944 -114.9375 98.6875 C-114.97875 98.00945312 -115.02 97.33140625 -115.0625 96.6328125 C-115.18167941 88.79676641 -109.97621759 83.94192443 -104.80862427 78.54792786 C-103.45184896 77.17643182 -102.08973281 75.81020476 -100.72314453 74.44848633 C-99.59993805 73.31761345 -99.59993805 73.31761345 -98.45404053 72.16389465 C-95.99790744 69.69395582 -93.53451244 67.23142017 -91.0703125 64.76953125 C-89.34905473 63.04438245 -87.62801944 61.31901165 -85.90719604 59.59342957 C-82.30789968 55.98669099 -78.70477801 52.38382674 -75.09912109 48.78344727 C-70.4885804 44.1787074 -65.88952154 39.56268627 -61.29348946 34.94347095 C-57.74531167 31.38053606 -54.19020408 27.82457911 -50.63308334 24.27057457 C-48.93475113 22.57173044 -47.2387682 20.87053425 -45.54523087 19.16691017 C-43.17416515 16.78345554 -40.79368377 14.40980535 -38.41064453 12.03833008 C-37.7194754 11.33951721 -37.02830627 10.64070435 -36.31619263 9.92071533 C-26.73854755 0.44507071 -13.4949232 -6.31562406 0 0 Z " fill="#FDFDFE" transform="translate(262.4375,151.5625)"/>
<path d="M0 0 C0.99 0.495 0.99 0.495 2 1 C-0.1702257 7.90526358 -5.62211804 11.5184317 -11 16 C-12.68933922 17.6436814 -14.35259924 19.3142876 -16 21 C-16.75152344 21.72960937 -17.50304687 22.45921875 -18.27734375 23.2109375 C-19.09332031 24.00757813 -19.90929687 24.80421875 -20.75 25.625 C-21.52859375 26.38039062 -22.3071875 27.13578125 -23.109375 27.9140625 C-25.20557053 29.94538253 -25.20557053 29.94538253 -26 33 C-26.9075 33.598125 -27.815 34.19625 -28.75 34.8125 C-32.27052633 37.18208503 -34.36783923 39.69292621 -37 43 C-41.17043767 47.36869277 -45.71865134 51.01670406 -50.4765625 54.71875 C-53.00232953 57.00210595 -54.36708488 59.04336079 -56 62 C-60.34782609 66.7826087 -60.34782609 66.7826087 -64 68 C-64 68.66 -64 69.32 -64 70 C-65.485 70.99 -65.485 70.99 -67 72 C-67.47334221 73.62288757 -67.93488844 75.25039564 -68.328125 76.89453125 C-69.12273552 79.38461887 -70.32585306 81.42129144 -71.625 83.6875 C-75.47333394 91.19061263 -74.92026763 98.5875866 -72.5 106.5 C-72.2215625 107.2734375 -71.943125 108.046875 -71.65625 108.84375 C-71 111 -71 111 -71 115 C-70.34 115 -69.68 115 -69 115 C-68.71125 115.969375 -68.4225 116.93875 -68.125 117.9375 C-67.35785318 121.10664203 -67.35785318 121.10664203 -65 122 C-65 122.99 -65 123.98 -65 125 C-64.34 125 -63.68 125 -63 125 C-62.505 124.01 -62.505 124.01 -62 123 C-61.34 124.98 -60.68 126.96 -60 129 C-57.69 129.33 -55.38 129.66 -53 130 C-53.33 131.65 -53.66 133.3 -54 135 C-53.51789063 135.30292969 -53.03578125 135.60585938 -52.5390625 135.91796875 C-48.46191513 138.62219915 -46.65342682 140.2940929 -45 145 C-44.39929688 145.29777344 -43.79859375 145.59554687 -43.1796875 145.90234375 C-40.60391152 147.19946391 -39.19984328 148.70516933 -37.3125 150.875 C-36.40951172 151.89207031 -36.40951172 151.89207031 -35.48828125 152.9296875 C-33.97243121 155.03835028 -33.54331014 156.50279409 -33 159 C-39.40086303 153.73252636 -45.30948709 147.97913497 -51.19702148 142.15307617 C-52.35017972 141.01641704 -53.50866785 139.88513801 -54.67260742 138.75952148 C-66.77503603 127.05130879 -76.79639256 114.86628624 -77.34741211 97.34277344 C-77.52330789 82.00715217 -72.4350277 71.40957199 -61.77906799 60.37452698 C-58.40659902 56.96556061 -54.98898427 53.6045277 -51.5625 50.25 C-50.16774654 48.86676538 -48.77386012 47.48265594 -47.38085938 46.09765625 C-46.02681264 44.75703336 -44.67201986 43.41716348 -43.31640625 42.078125 C-42.70156876 41.47067444 -42.08673126 40.86322388 -41.45326233 40.23736572 C-38.37072354 37.22105077 -35.23611489 34.30536196 -31.97436523 31.4831543 C-28.18638583 28.20172381 -24.62044262 24.74996695 -21.09375 21.19140625 C-20.17849548 20.27402931 -20.17849548 20.27402931 -19.24475098 19.33811951 C-17.32743835 17.41528198 -15.41366298 15.48896906 -13.5 13.5625 C-12.18773415 12.24520941 -10.87523605 10.92815014 -9.5625 9.61132812 C-6.37231494 6.4102139 -3.18529349 3.20598135 0 0 Z " fill="#4693CC" transform="translate(187,154)"/>
<path d="M0 0 C1.4375 2.1875 1.4375 2.1875 2 4 C2.99 4 3.98 4 5 4 C5.495 4.99 5.495 4.99 6 6 C6.99 6.33 7.98 6.66 9 7 C9 7.66 9 8.32 9 9 C9.99 9.33 10.98 9.66 12 10 C12.66666667 11.33333333 13.33333333 12.66666667 14 14 C15.32392972 15.01241685 16.65599167 16.01439389 18 17 C18 17.66 18 18.32 18 19 C19.65 19.66 21.3 20.32 23 21 C23 21.66 23 22.32 23 23 C23.66 23 24.32 23 25 23 C25.433125 23.66 25.86625 24.32 26.3125 25 C27.85583656 27.30342071 27.85583656 27.30342071 30.6875 27.25 C31.450625 27.1675 32.21375 27.085 33 27 C32.731875 27.556875 32.46375 28.11375 32.1875 28.6875 C31.70727995 31.2909826 31.70727995 31.2909826 34.25 33.75 C36.79478405 36.3166189 36.79478405 36.3166189 40 36 C40.37125 37.1446875 40.37125 37.1446875 40.75 38.3125 C42.13067773 41.28095711 43.38750987 42.14597475 46 44 C47.49084832 48.47254497 47.49084832 52.52745503 46 57 C45.34 57 44.68 57 44 57 C44.08121094 56.443125 44.16242188 55.88625 44.24609375 55.3125 C44.53463574 51.82644163 44.70086748 49.0660457 42.72924805 46.06713867 C41.87907104 45.15798706 41.87907104 45.15798706 41.01171875 44.23046875 C40.37532471 43.54388184 39.73893066 42.85729492 39.08325195 42.14990234 C35.54793918 38.50148277 31.988072 34.88407913 28.375 31.3125 C27.63765625 30.57966797 26.9003125 29.84683594 26.140625 29.09179688 C24.7223945 27.68246208 23.30286561 26.27443227 21.88183594 24.86791992 C20.30027108 23.2980506 18.73021537 21.71800051 17.1640625 20.1328125 C14.93418396 17.86711712 14.93418396 17.86711712 12 15.5625 C9 13 9 13 6.625 10 C2.14164089 4.87616101 -3.39500956 1.26085933 -10.29296875 0.76171875 C-22.37267846 0.53151365 -28.14867013 2.82673782 -36.9921875 11.07421875 C-43.42468254 17.2842061 -49.71626334 23.64014651 -56 30 C-56.33 28.68 -56.66 27.36 -57 26 C-56.01 26 -55.02 26 -54 26 C-53.62875 24.8553125 -53.62875 24.8553125 -53.25 23.6875 C-52 21 -52 21 -50 19.625 C-47.1018914 17.27028676 -46.91534745 14.5306259 -46 11 C-43.50907189 9.75453595 -42.58919267 10.2232422 -40 11 C-40 10.01 -40 9.02 -40 8 C-39.01 8 -38.02 8 -37 8 C-36.67 7.01 -36.34 6.02 -36 5 C-27.38424051 -4.0534585 -10.79178336 -6.29520696 0 0 Z " fill="#4A94C8" transform="translate(265,150)"/>
<path d="M0 0 C1.32 0.33 2.64 0.66 4 1 C3.30508957 1.69046921 2.61017914 2.38093842 1.89421082 3.09233093 C-4.65879181 9.60476382 -11.20648708 16.12249126 -17.74904346 22.64541912 C-21.11268196 25.99862713 -24.47815272 29.34995196 -27.84790039 32.69702148 C-31.10072601 35.92809275 -34.34862044 39.16404628 -37.59317589 42.4034214 C-38.83096183 43.63751626 -40.07050477 44.86985148 -41.31183815 46.10037804 C-43.05219712 47.82618785 -44.78616443 49.55818796 -46.51879883 51.29174805 C-47.03165436 51.79741302 -47.54450989 52.303078 -48.07290649 52.82406616 C-52.73290651 57.51102057 -55.35654701 61.02420772 -55.46679688 67.77539062 C-55.45712891 68.46826172 -55.44746094 69.16113281 -55.4375 69.875 C-55.43427734 70.58591797 -55.43105469 71.29683594 -55.42773438 72.02929688 C-55.2817808 77.48997381 -54.38112206 80.77359742 -51 85 C-53.87529818 83.71107323 -56.05008298 82.50703617 -58 80 C-60.19316633 71.16598737 -59.95819579 63.05858745 -55.4375 55.0703125 C-53.61477975 52.4451991 -51.74861094 50.63430921 -49 49 C-48.34 49 -47.68 49 -47 49 C-47 48.34 -47 47.68 -47 47 C-46.34 47 -45.68 47 -45 47 C-44.9175 45.88625 -44.835 44.7725 -44.75 43.625 C-44 40 -44 40 -41.9375 38.5625 C-40.9784375 38.2840625 -40.9784375 38.2840625 -40 38 C-39.505 38.495 -39.505 38.495 -39 39 C-36.18594172 36.26870814 -33.53103833 33.49659201 -31 30.5 C-28.45886426 27.51465544 -25.93204327 24.61506562 -23 22 C-22.01 22 -21.02 22 -20 22 C-19.505 20.515 -19.505 20.515 -19 19 C-18.34 19 -17.68 19 -17 19 C-16.74347656 18.41476563 -16.48695313 17.82953125 -16.22265625 17.2265625 C-14.89437838 14.80765392 -13.43475199 13.26801128 -11.4375 11.375 C-8.85984611 8.95478041 -8.85984611 8.95478041 -7 6 C-6.34 6 -5.68 6 -5 6 C-4.67 5.01 -4.34 4.02 -4 3 C-3.01 3 -2.02 3 -1 3 C-0.67 2.01 -0.34 1.02 0 0 Z " fill="#4893CC" transform="translate(204,180)"/>
<path d="M0 0 C0 0.66 0 1.32 0 2 C0.72574219 2.24363281 1.45148438 2.48726562 2.19921875 2.73828125 C5.34439883 4.15514759 7.30204281 5.83115811 9.8125 8.1875 C13.64272909 11.74250305 17.52456275 15.20299807 21.50390625 18.58984375 C23 20 23 20 24 22 C19.71657993 21.52406444 17.84426611 19.05238315 15 16 C11.28266512 12.09679838 7.85271911 9.29669051 2.9375 7.0625 C1 6 1 6 -0.76953125 4.0703125 C-6.72368456 -1.45630966 -17.05193422 -3.07540859 -25 -3 C-25.99 -2.67 -26.98 -2.34 -28 -2 C-29.155 -2.020625 -30.31 -2.04125 -31.5 -2.0625 C-35.11538937 -2.3128976 -35.11538937 -2.3128976 -38 0 C-39.44746609 0.34153694 -40.90815665 0.62969173 -42.375 0.875 C-47.73469163 1.99377058 -50.46859637 4.42605738 -54.25 8.3125 C-56.53515172 10.54571645 -58.7856831 12.43762924 -61.3125 14.375 C-68.02772329 19.53113331 -74.0809809 24.82144018 -79.5546875 31.30078125 C-81 33 -81 33 -83 35 C-83.99 35 -84.98 35 -86 35 C-84.42046703 30.93293906 -81.67958695 28.70707074 -78.4375 25.875 C-74.71412066 22.83511822 -74.71412066 22.83511822 -72 19 C-71.34 19 -70.68 19 -70 19 C-70 18.34 -70 17.68 -70 17 C-68.53125 15.51953125 -68.53125 15.51953125 -66.5 13.8125 C-63.62268171 11.37589772 -60.79305415 8.90759077 -58 6.375 C-40.46409101 -8.845488 -20.48235893 -9.49251393 0 0 Z " fill="#4E97CD" transform="translate(275,119)"/>
<path d="M0 0 C0.66 0.33 1.32 0.66 2 1 C-0.1702257 7.90526358 -5.62211804 11.5184317 -11 16 C-12.68933922 17.6436814 -14.35259924 19.3142876 -16 21 C-16.75152344 21.72960937 -17.50304687 22.45921875 -18.27734375 23.2109375 C-19.09332031 24.00757813 -19.90929687 24.80421875 -20.75 25.625 C-21.52859375 26.38039062 -22.3071875 27.13578125 -23.109375 27.9140625 C-25.20557053 29.94538253 -25.20557053 29.94538253 -26 33 C-26.9075 33.598125 -27.815 34.19625 -28.75 34.8125 C-32.27052633 37.18208503 -34.36783923 39.69292621 -37 43 C-41.21470265 47.81680303 -46.28070393 51.17912685 -52 54 C-52.99 54 -53.98 54 -55 54 C-52.00428676 50.97489042 -49.00265195 47.95572125 -46 44.9375 C-45.16082031 44.08994141 -44.32164062 43.24238281 -43.45703125 42.36914062 C-39.82377755 38.72180455 -36.20772341 35.11358599 -32.28125 31.78125 C-25.66212921 26.10022643 -19.64299886 19.74660732 -13.5 13.5625 C-12.18773415 12.24520941 -10.87523605 10.92815014 -9.5625 9.61132812 C-6.37231494 6.4102139 -3.18529349 3.20598135 0 0 Z " fill="#4696CF" transform="translate(187,154)"/>
<path d="M0 0 C6.91923346 5.22472731 13.20914566 12.268182 15 21 C16.14864465 33.74282608 15.1248695 42.78486519 7.25 53.0625 C2.1113904 59.21543477 -3.42114035 65.35609907 -10 70 C-10.66 70 -11.32 70 -12 70 C-12 69.01 -12 68.02 -12 67 C-11.01 67 -10.02 67 -9 67 C-8.67 65.35 -8.34 63.7 -8 62 C-7.4225 61.87625 -6.845 61.7525 -6.25 61.625 C-3.97664233 60.99351176 -2.0746471 60.11141809 0 59 C0 56.36 0 53.72 0 51 C3 51 3 51 6 52 C6 51.01 6 50.02 6 49 C6.66 49 7.32 49 8 49 C8 47.02 8 45.04 8 43 C9.98 42.505 9.98 42.505 12 42 C13.44418873 24.35170547 13.44418873 24.35170547 6 9 C5.01 8.34 4.02 7.68 3 7 C3 6.34 3 5.68 3 5 C2.01 4.67 1.02 4.34 0 4 C0 2.68 0 1.36 0 0 Z " fill="#4E97C9" transform="translate(329,170)"/>
<path d="M0 0 C5.86217991 6.87290058 7.84853006 13.18822475 9 22 C9.13277344 22.78246094 9.26554687 23.56492188 9.40234375 24.37109375 C10.58383567 36.66275533 0.82736651 49.14085254 -6.58984375 58.203125 C-9.57476082 61.66698338 -12.66022657 64.87803788 -16 68 C-16.66 67.34 -17.32 66.68 -18 66 C-16.6875 64 -16.6875 64 -15 62 C-14.01 62 -13.02 62 -12 62 C-11.78085937 61.47664063 -11.56171875 60.95328125 -11.3359375 60.4140625 C-9.86299256 57.75242515 -8.05220102 55.51738775 -6.11474609 53.18041992 C3.60119802 41.40568923 5.65112807 32.03638032 6 17 C5.34 17 4.68 17 4 17 C3.67 14.03 3.34 11.06 3 8 C2.34 8 1.68 8 1 8 C0.67 5.36 0.34 2.72 0 0 Z " fill="#3CA28D" transform="translate(382,224)"/>
<path d="M0 0 C0.495 0.99 0.495 0.99 1 2 C-5.78016053 12.72211433 -14.69600232 20.34800116 -26 26 C-32.12784618 26.39445716 -38.36251458 26.74256047 -44 24 C-44.33 23.34 -44.66 22.68 -45 22 C-47.02463255 21.34786708 -47.02463255 21.34786708 -49 21 C-48.67 20.01 -48.34 19.02 -48 18 C-49.32 17.67 -50.64 17.34 -52 17 C-52.33 15.02 -52.66 13.04 -53 11 C-52.360625 11.680625 -51.72125 12.36125 -51.0625 13.0625 C-50.04959682 14.04986781 -49.02750701 15.0278388 -48 16 C-47.35675781 16.62390625 -46.71351563 17.2478125 -46.05078125 17.890625 C-40.94037653 22.40466292 -37.39754315 23.75047345 -30.578125 23.44140625 C-17.8564227 21.26329661 -8.55559424 8.7746564 0 0 Z " fill="#2B9F88" transform="translate(283,322)"/>
<path d="M0 0 C1.20763924 2.89833417 0.9817279 4.05440414 -0.0390625 7.09375 C-0.56242187 8.2178125 -1.08578125 9.341875 -1.625 10.5 C-2.13289063 11.6240625 -2.64078125 12.748125 -3.1640625 13.90625 C-5.11844837 17.19959811 -6.9697345 18.71920475 -10 21 C-11.4801923 22.73530623 -12.91679359 24.50854308 -14.3125 26.3125 C-24.46806458 38.93514016 -24.46806458 38.93514016 -32 40 C-28.52481591 35.78787129 -24.91142466 31.87410815 -20.95043945 28.11694336 C-13.54954356 21.06656767 -8.11663676 13.84398803 -3 5 C-2.00132045 3.33254178 -1.00182388 1.66557098 0 0 Z " fill="#31A087" transform="translate(353,245)"/>
<path d="M0 0 C-0.94875 0.7425 -1.8975 1.485 -2.875 2.25 C-5.40156477 4.3466365 -6.60413972 6.02216474 -8 9 C-12.33333333 13.77777778 -12.33333333 13.77777778 -16 15 C-16 15.66 -16 16.32 -16 17 C-16.99 17.66 -17.98 18.32 -19 19 C-19.46912129 20.60841585 -19.92906197 22.22044236 -20.328125 23.84765625 C-21.66417266 28.12766938 -23.91476391 32.04441857 -26 36 C-27.78249439 30.72627522 -25.86765562 26.03992362 -24 21 C-20.39492016 13.81355796 -8.94578933 -2.98192978 0 0 Z " fill="#4194D0" transform="translate(139,207)"/>
<path d="M0 0 C-6.80991204 2.5486801 -13.45806672 4.96997448 -20.5625 6.5625 C-24.95715715 7.58070285 -27.69437367 8.80456121 -31 12 C-31.66 12 -32.32 12 -33 12 C-33 11.34 -33 10.68 -33 10 C-33.52335937 10.29519531 -34.04671875 10.59039062 -34.5859375 10.89453125 C-37.54545448 12.24977932 -40.45479871 12.95398842 -43.625 13.6875 C-44.77226562 13.95949219 -45.91953125 14.23148438 -47.1015625 14.51171875 C-50 15 -50 15 -52 14 C-43.6821029 9.83406704 -35.29137291 7.17827391 -26.3125 4.8125 C-25.04599609 4.47025391 -23.77949219 4.12800781 -22.47460938 3.77539062 C-20.04717643 3.12189979 -17.61773671 2.47580225 -15.18603516 1.83837891 C-13.27524657 1.33557063 -11.3674304 0.82092026 -9.46630859 0.28271484 C-5.87361212 -0.71040852 -3.55743289 -1.0803768 0 0 Z " fill="#32A28B" transform="translate(284,221)"/>
<path d="M0 0 C0.66 0.33 1.32 0.66 2 1 C0.86099653 3.28348293 -0.28503999 5.56310889 -1.4375 7.83984375 C-1.953125 8.86207031 -2.46875 9.88429688 -3 10.9375 C-3.515625 11.95714844 -4.03125 12.97679687 -4.5625 14.02734375 C-5.036875 15.00832031 -5.51125 15.98929687 -6 17 C-6.38414062 17.79148437 -6.76828125 18.58296875 -7.1640625 19.3984375 C-8.26688861 22.83059727 -8.38133179 26.11721387 -8.375 29.6875 C-8.37701416 30.39213379 -8.37902832 31.09676758 -8.38110352 31.82275391 C-8.278013 37.15540056 -7.19417515 41.37857461 -4.77734375 46.1796875 C-4.52082031 46.78039062 -4.26429688 47.38109375 -4 48 C-4.33 48.66 -4.66 49.32 -5 50 C-5.66 49.34 -6.32 48.68 -7 48 C-7 47.01 -7 46.02 -7 45 C-7.66 45 -8.32 45 -9 45 C-10.28605661 42.42788678 -10.21043941 40.43093034 -10.31640625 37.5546875 C-10.35830078 36.47832031 -10.40019531 35.40195312 -10.44335938 34.29296875 C-10.48267578 33.16503906 -10.52199219 32.03710938 -10.5625 30.875 C-10.60568359 29.73933594 -10.64886719 28.60367187 -10.69335938 27.43359375 C-10.7996604 24.62252232 -10.90169405 21.81136055 -11 19 C-10.34 19 -9.68 19 -9 19 C-8.67 16.69 -8.34 14.38 -8 12 C-7.34 12 -6.68 12 -6 12 C-5.83177734 11.14148438 -5.83177734 11.14148438 -5.66015625 10.265625 C-4.92776966 7.75210888 -3.86145147 5.94069457 -2.4375 3.75 C-1.98246094 3.04359375 -1.52742187 2.3371875 -1.05859375 1.609375 C-0.70925781 1.07828125 -0.35992187 0.5471875 0 0 Z " fill="#36A58C" transform="translate(231,277)"/>
<path d="M0 0 C1.29127684 3.87383052 0.476912 4.77688314 -1.3125 8.375 C-6.5710611 18.46409979 -13.70115604 27.242385 -22 35 C-22.66 34.34 -23.32 33.68 -24 33 C-22.6875 31 -22.6875 31 -21 29 C-20.01 29 -19.02 29 -18 29 C-17.67128906 28.21496094 -17.67128906 28.21496094 -17.3359375 27.4140625 C-15.86263222 24.751774 -14.05001578 22.51615321 -12.11474609 20.17651367 C-7.07042858 14.07654334 -3.48081454 8.59129249 -1 1 C-0.67 0.67 -0.34 0.34 0 0 Z " fill="#259E86" transform="translate(388,257)"/>
<path d="M0 0 C4.85123262 3.94162651 8.92773536 8.10645402 13.015625 12.828125 C15.32347569 15.35404032 17.81560827 17.48452577 20.45703125 19.6484375 C22.61186389 21.53596178 24.30776785 23.69856428 26 26 C21.74257863 25.52695318 19.74294902 23.1136178 17 20 C16.67 19.01 16.34 18.02 16 17 C15.21625 16.9175 14.4325 16.835 13.625 16.75 C11 16 11 16 9.875 14.0625 C9.58625 13.381875 9.2975 12.70125 9 12 C8.01 11.34 7.02 10.68 6 10 C4.9004112 8.88970961 3.83881113 7.74085722 2.8125 6.5625 C2.28269531 5.96566406 1.75289062 5.36882812 1.20703125 4.75390625 C0 3 0 3 0 0 Z " fill="#4E99C7" transform="translate(153,266)"/>
<path d="M0 0 C0.66 0.33 1.32 0.66 2 1 C1.3503125 1.5878125 1.3503125 1.5878125 0.6875 2.1875 C-1.2698259 4.28981301 -2.53170615 6.53326634 -4 9 C-7.6 13.8 -7.6 13.8 -10 15 C-10.46523063 16.89533342 -10.46523063 16.89533342 -10.625 19.0625 C-10.810625 21.0115625 -10.810625 21.0115625 -11 23 C-12.65 23.66 -14.3 24.32 -16 25 C-14.94893208 14.8947327 -7.37808881 6.54805382 0 0 Z " fill="#4CA793" transform="translate(215,246)"/>
<path d="M0 0 C-3.50607172 2.33738115 -6.9876324 3.17797344 -11 4.25 C-18.2901408 6.2830731 -24.51061385 9.0694837 -31 13 C-32.32648508 13.68019082 -33.65757836 14.35182845 -35 15 C-33.61318429 11.65448581 -32.20415702 10.13235259 -29.125 8.25 C-28.44695312 7.82203125 -27.76890625 7.3940625 -27.0703125 6.953125 C-25 6 -25 6 -21 6 C-20.67 5.34 -20.34 4.68 -20 4 C-17.80131364 3.20206614 -15.56362233 2.51011288 -13.3125 1.875 C-12.09175781 1.52179688 -10.87101562 1.16859375 -9.61328125 0.8046875 C-6.2610498 0.0581365 -3.41640681 -0.1574381 0 0 Z " fill="#35A38C" transform="translate(271,261)"/>
<path d="M0 0 C0.99 0.66 1.98 1.32 3 2 C3.44921875 4.33984375 3.44921875 4.33984375 3 7 C1.20703125 9.31640625 1.20703125 9.31640625 -1.1875 11.5625 C-2.41726563 12.72265625 -2.41726563 12.72265625 -3.671875 13.90625 C-10.44776119 20 -10.44776119 20 -13 20 C-13 19.01 -13 18.02 -13 17 C-12.01 17 -11.02 17 -10 17 C-9.67 15.35 -9.34 13.7 -9 12 C-8.4225 11.87625 -7.845 11.7525 -7.25 11.625 C-4.97664233 10.99351176 -3.0746471 10.11141809 -1 9 C-1.020625 7.700625 -1.04125 6.40125 -1.0625 5.0625 C-1.08399454 3.70834367 -1.07148199 2.35243917 -1 1 C-0.67 0.67 -0.34 0.34 0 0 Z " fill="#3898C1" transform="translate(330,220)"/>
<path d="M0 0 C0 3 0 3 -2.38671875 5.72729492 C-3.47931119 6.81941176 -4.5801754 7.90329204 -5.6875 8.98046875 C-6.26459717 9.55332108 -6.84169434 10.1261734 -7.4362793 10.71638489 C-9.28394376 12.54723565 -11.14175807 14.36739185 -13 16.1875 C-14.25328593 17.42574262 -15.50589901 18.66466668 -16.7578125 19.90429688 C-19.83078528 22.94416468 -22.91290242 25.97448016 -26 29 C-26.66 28.67 -27.32 28.34 -28 28 C-25.90625 25.90625 -25.90625 25.90625 -23.8125 23.8125 C-22.98878906 22.9875 -22.16507812 22.1625 -21.31640625 21.3125 C-19.63722013 19.63614556 -17.94694351 17.97087661 -16.25 16.3125 C-13.90820819 13.97827827 -13.90820819 13.97827827 -11.6875 11.125 C-8.55821349 7.27587762 -4.77065434 4.19800824 -1 1 C-0.67 0.67 -0.34 0.34 0 0 Z " fill="#DAEBE8" transform="translate(352,305)"/>
<path d="M0 0 C2.25 -0.375 2.25 -0.375 5 0 C7.1875 2.875 7.1875 2.875 9 6 C9.66 6.66 10.32 7.32 11 8 C12.32 8 13.64 8 15 8 C15 10.31 15 12.62 15 15 C9.72997792 10.60831493 4.64697949 6.0573621 0 1 C0 0.67 0 0.34 0 0 Z " fill="#4D96C7" transform="translate(154,313)"/>
<path d="M0 0 C0 3 0 3 -2 6 C-2.66 6 -3.32 6 -4 6 C-4.33 6.99 -4.66 7.98 -5 9 C-10.93339846 11.80487927 -16.48754519 12.61298937 -23 13 C-20.10725338 11.07150225 -17.54362302 9.99114841 -14.3125 8.75 C-8.85170061 6.52719587 -4.4673042 3.82348683 0 0 Z " fill="#4897AF" transform="translate(308,207)"/>
<path d="M0 0 C0.66 0.33 1.32 0.66 2 1 C1.360625 1.598125 0.72125 2.19625 0.0625 2.8125 C-2.20310389 4.90810337 -2.20310389 4.90810337 -3 8 C-4.97946592 9.36363208 -6.9819245 10.69418644 -9 12 C-10.36886951 13.29682374 -11.7169291 14.61823134 -13 16 C-13.33 15.01 -13.66 14.02 -14 13 C-13.34 13 -12.68 13 -12 13 C-11.7525 12.2575 -11.505 11.515 -11.25 10.75 C-9.02834238 5.86235324 -5.57031805 3.5939643 -1 1 C-0.67 0.67 -0.34 0.34 0 0 Z " fill="#338FD1" transform="translate(164,179)"/>
<path d="M0 0 C0.33 0.66 0.66 1.32 1 2 C-2.10823703 7.22183821 -6.15302371 12.84184341 -12.21875 14.66796875 C-12.8065625 14.77753906 -13.394375 14.88710938 -14 15 C-9.59156563 9.70987876 -4.92440206 4.81191572 0 0 Z " fill="#41A590" transform="translate(283,322)"/>
<path d="M0 0 C5.93409367 4.69782416 10.42451008 9.98649896 15 16 C14.01 16.33 13.02 16.66 12 17 C11.2575 16.0925 10.515 15.185 9.75 14.25 C8.12780002 12.2904194 6.51749599 10.53053664 4.6875 8.75 C3 7 3 7 3 5 C2.34 5 1.68 5 1 5 C0.67 3.35 0.34 1.7 0 0 Z " fill="#45A18D" transform="translate(367,207)"/>
<path d="M0 0 C3.68069887 1.53643852 5.98775204 3.78150945 8.75 6.625 C9.54921875 7.44226563 10.3484375 8.25953125 11.171875 9.1015625 C12.07679688 10.04128906 12.07679688 10.04128906 13 11 C12.67 11.66 12.34 12.32 12 13 C9.11919043 11.82633684 7.65742801 10.64907259 5.4375 8.375 C3.2090916 5.65106764 3.2090916 5.65106764 0 6 C0 4.02 0 2.04 0 0 Z " fill="#4E97CC" transform="translate(313,155)"/>
<path d="M0 0 C0.66 0.33 1.32 0.66 2 1 C-7.16680708 12.71440607 -7.16680708 12.71440607 -11 16 C-11.99 16 -12.98 16 -14 16 C-12.42046703 11.93293906 -9.67958695 9.70707074 -6.4375 6.875 C-2.71412066 3.83511822 -2.71412066 3.83511822 0 0 Z " fill="#5B9ED2" transform="translate(203,138)"/>
<path d="M0 0 C0 4.75727396 -2.86697684 7.7207803 -5.9375 11.1875 C-8.17727417 13.1557864 -10.33186842 14.66593421 -13 16 C-13.66 15.67 -14.32 15.34 -15 15 C-10.05 10.05 -5.1 5.1 0 0 Z " fill="#46A891" transform="translate(313,292)"/>
<path d="M0 0 C0.99 0 1.98 0 3 0 C3.33 0.66 3.66 1.32 4 2 C4.60457031 2.29132813 5.20914063 2.58265625 5.83203125 2.8828125 C8.38530842 4.19855533 9.80727556 5.71335368 11.6875 7.875 C12.28949219 8.55304688 12.89148438 9.23109375 13.51171875 9.9296875 C15.00766194 12.01065834 15.5789756 13.49630826 16 16 C10.35573231 11.31645873 4.9941954 6.3792354 0 1 C0 0.67 0 0.34 0 0 Z " fill="#4792C9" transform="translate(138,297)"/>
<path d="M0 0 C0.99 0.33 1.98 0.66 3 1 C-1.69766975 6.66129431 -6.74723372 11.85228904 -12 17 C-12.33 16.01 -12.66 15.02 -13 14 C-12.34 13.01 -11.68 12.02 -11 11 C-10.01 11 -9.02 11 -8 11 C-8 10.34 -8 9.68 -8 9 C-7.34 9 -6.68 9 -6 9 C-5.34 7.68 -4.68 6.36 -4 5 C-3.34 5 -2.68 5 -2 5 C-2 4.34 -2 3.68 -2 3 C-1.34 3 -0.68 3 0 3 C0 2.01 0 1.02 0 0 Z " fill="#31A28B" transform="translate(314,339)"/>
<path d="M0 0 C0.33 0 0.66 0 1 0 C1.38973857 6.82042505 -1.98002612 12.09199284 -5 18 C-6.31534494 14.34142468 -5.65468309 11.91973519 -4.5625 8.25 C-4.27503906 7.26515625 -3.98757812 6.2803125 -3.69140625 5.265625 C-3.46324219 4.51796875 -3.23507813 3.7703125 -3 3 C-2.01 3 -1.02 3 0 3 C0 2.01 0 1.02 0 0 Z " fill="#2F8CCF" transform="translate(118,225)"/>
<path d="M0 0 C-3.37517622 1.12505874 -4.6068359 0.73739658 -8 0 C-9.61961498 -0.07649781 -11.24189445 -0.10811681 -12.86328125 -0.09765625 C-13.74951172 -0.09443359 -14.63574219 -0.09121094 -15.54882812 -0.08789062 C-16.9168457 -0.07532227 -16.9168457 -0.07532227 -18.3125 -0.0625 C-19.24384766 -0.05798828 -20.17519531 -0.05347656 -21.13476562 -0.04882812 C-23.42324373 -0.03709234 -25.71158808 -0.02067363 -28 0 C-20.24132028 -5.17245315 -7.99110496 -4.16927215 0 0 Z " fill="#3489CC" transform="translate(265,150)"/>
<path d="M0 0 C6.6 0.33 13.2 0.66 20 1 C18 3 18 3 14.62890625 3.23046875 C13.2733677 3.22647796 11.91782794 3.21172505 10.5625 3.1875 C9.88123047 3.18685547 9.19996094 3.18621094 8.49804688 3.18554688 C5.40402053 3.15827338 2.95469327 2.98489776 0 2 C0 1.34 0 0.68 0 0 Z " fill="#58AC9A" transform="translate(237,384)"/>
<path d="M0 0 C0 4.06658827 -1.54727723 6.86478046 -4 10 C-6.29188891 11.80186366 -8.29471515 12.79765118 -11 14 C-11.66 13.67 -12.32 13.34 -13 13 C-8.71 8.71 -4.42 4.42 0 0 Z " fill="#44A692" transform="translate(297,308)"/>
<path d="M0 0 C0.99 0.33 1.98 0.66 3 1 C-2.05535865 5.51755454 -7.29014621 9.34880098 -13 13 C-13.66 12.67 -14.32 12.34 -15 12 C-13.1875 10 -13.1875 10 -11 8 C-10.01 8 -9.02 8 -8 8 C-8 7.34 -8 6.68 -8 6 C-7.34 6 -6.68 6 -6 6 C-5.67 5.01 -5.34 4.02 -5 3 C-3.35 2.67 -1.7 2.34 0 2 C0 1.34 0 0.68 0 0 Z " fill="#37A38D" transform="translate(285,369)"/>
<path d="M0 0 C0.99 0.33 1.98 0.66 3 1 C2.0925 1.721875 1.185 2.44375 0.25 3.1875 C-1.79692101 4.88529663 -3.32084079 6.40105098 -5 8.5 C-7.39613489 11.49516861 -10.00190003 13.61514775 -13 16 C-12.26143525 9.59910547 -6.15355004 5.07073861 -1.6484375 1.00390625 C-1.10445313 0.67261719 -0.56046875 0.34132813 0 0 Z " fill="#2CA28A" transform="translate(344,310)"/>
<path d="M0 0 C0 4.44270842 -2.08911512 6.90693815 -4.875 10.25 C-7.282193 12.23239423 -8.93497722 12.65944191 -12 13 C-8.19524578 8.43969176 -4.25030379 4.14910608 0 0 Z " fill="#40A78F" transform="translate(333,272)"/>
<path d="M0 0 C0.73605469 0.00451172 1.47210938 0.00902344 2.23046875 0.01367188 C4.02868158 0.02534858 5.82685197 0.04327989 7.625 0.0625 C7.625 0.3925 7.625 0.7225 7.625 1.0625 C6.23087891 1.11857422 6.23087891 1.11857422 4.80859375 1.17578125 C-3.06653403 1.40656229 -3.06653403 1.40656229 -10.5 3.6875 C-13.375 5.0625 -13.375 5.0625 -15.8125 4.75 C-16.328125 4.523125 -16.84375 4.29625 -17.375 4.0625 C-15.62066622 1.82085128 -14.59256299 1.11230358 -11.78125 0.46875 C-7.82465311 -0.0031377 -3.97874152 -0.0467664 0 0 Z " fill="#639FCC" transform="translate(249.375,148.9375)"/>
<path d="M0 0 C2.475 0.495 2.475 0.495 5 1 C5 1.99 5 2.98 5 4 C6.32 4 7.64 4 9 4 C9.33 5.32 9.66 6.64 10 8 C11.65 8.33 13.3 8.66 15 9 C15 9.66 15 10.32 15 11 C8.61438203 9.69012965 4.45486113 5.50435959 0 1 C0 0.67 0 0.34 0 0 Z " fill="#43A295" transform="translate(212,370)"/>
<path d="M0 0 C-0.33 1.32 -0.66 2.64 -1 4 C-2.11375 4.0825 -3.2275 4.165 -4.375 4.25 C-5.57125 4.4975 -6.7675 4.745 -8 5 C-9.1500831 6.96672915 -9.1500831 6.96672915 -10 9 C-12.625 9.75 -12.625 9.75 -15 10 C-11.33829025 5.99500496 -5.76187936 0 0 0 Z " fill="#40A38F" transform="translate(232,236)"/>
<path d="M0 0 C0.33 0 0.66 0 1 0 C1.08153933 1.58246707 1.13943557 3.16616273 1.1875 4.75 C1.22230469 5.63171875 1.25710938 6.5134375 1.29296875 7.421875 C0.94598993 10.47528862 -0.04631869 11.68747927 -2 14 C-2.70514846 16.14733927 -2.70514846 16.14733927 -3 18 C-3.66 18 -4.32 18 -5 18 C-3.53889252 11.93078433 -1.83402304 5.96668828 0 0 Z " fill="#3F9F8A" transform="translate(359,227)"/>
<path d="M0 0 C0.33 0 0.66 0 1 0 C1.02578125 0.75023437 1.0515625 1.50046875 1.078125 2.2734375 C1.4423133 8.84538087 2.45631791 14.06898092 5.2578125 20.0390625 C5.50273437 20.68617188 5.74765625 21.33328125 6 22 C5.67 22.66 5.34 23.32 5 24 C4.34 23.34 3.68 22.68 3 22 C3 21.01 3 20.02 3 19 C2.34 19 1.68 19 1 19 C-0.65497356 15.69005287 -0.10084335 12.00877 -0.0625 8.375 C-0.05798828 7.57320313 -0.05347656 6.77140625 -0.04882812 5.9453125 C-0.03703168 3.96350994 -0.01909605 1.98174567 0 0 Z " fill="#3EA292" transform="translate(221,303)"/>
<path d="M0 0 C4.52615993 3.67832017 8.39424999 7.41086363 12 12 C9.03 11.505 9.03 11.505 6 11 C6 10.34 6 9.68 6 9 C5.195625 8.21625 4.39125 7.4325 3.5625 6.625 C1.05438131 4.05570769 0.61372453 3.31552331 0 0 Z " fill="#599BC8" transform="translate(153,266)"/>
<path d="M0 0 C2.9517885 3.46071755 5.28901641 6.76756692 7 11 C6.6875 13.375 6.6875 13.375 6 15 C6 14.34 6 13.68 6 13 C5.34 13 4.68 13 4 13 C3.67 11.35 3.34 9.7 3 8 C2.34 8 1.68 8 1 8 C0.67 5.36 0.34 2.72 0 0 Z " fill="#4EA594" transform="translate(382,224)"/>
<path d="M0 0 C0.99 0.33 1.98 0.66 3 1 C-0.63 4.63 -4.26 8.26 -8 12 C-8.33 10.68 -8.66 9.36 -9 8 C-8.01 8 -7.02 8 -6 8 C-5.7525 7.236875 -5.505 6.47375 -5.25 5.6875 C-3.8744729 2.73011673 -2.84548949 1.55208517 0 0 Z " fill="#5497CC" transform="translate(217,168)"/>
<path d="M0 0 C-0.59167969 0.45890625 -1.18335938 0.9178125 -1.79296875 1.390625 C-5.88379822 4.56719079 -9.96818271 7.74853444 -14 11 C-13.70359143 7.54190006 -13.03653935 6.04489121 -10.8125 3.3125 C-7.60977705 0.67915002 -4.08244725 -2.04122362 0 0 Z " fill="#3E93D2" transform="translate(218,130)"/>
<path d="M0 0 C1.79964847 2.59949224 2.05020707 3.71130938 1.5 6.875 C-0.43770362 10.91188253 -2.63118919 13.05229054 -6 16 C-6.66 16 -7.32 16 -8 16 C-8 14 -8 14 -6.0625 12 C-5.381875 11.34 -4.70125 10.68 -4 10 C-3.67 9.34 -3.34 8.68 -3 8 C-2.34 8 -1.68 8 -1 8 C-0.67 5.36 -0.34 2.72 0 0 Z " fill="#238EC0" transform="translate(312,199)"/>
<path d="M0 0 C0.66 0 1.32 0 2 0 C2 0.66 2 1.32 2 2 C2.66 2 3.32 2 4 2 C4.433125 2.66 4.86625 3.32 5.3125 4 C6.85583656 6.30342071 6.85583656 6.30342071 9.6875 6.25 C10.8321875 6.12625 10.8321875 6.12625 12 6 C11.34 7.32 10.68 8.64 10 10 C6.7451198 9.41978222 5.06347592 8.47352859 2.75 6.125 C2.22921875 5.61195313 1.7084375 5.09890625 1.171875 4.5703125 C0 3 0 3 0 0 Z " fill="#3A8ECD" transform="translate(286,171)"/>
<path d="M0 0 C0.66 0.66 1.32 1.32 2 2 C0.08424874 3.12655813 -1.83263719 4.25118687 -3.75 5.375 C-4.81734375 6.00148438 -5.8846875 6.62796875 -6.984375 7.2734375 C-9.29738678 8.59772663 -11.59951417 9.84636846 -14 11 C-12.61318429 7.65448581 -11.20415702 6.13235259 -8.125 4.25 C-7.44695312 3.82203125 -6.76890625 3.3940625 -6.0703125 2.953125 C-4 2 -4 2 0 2 C0 1.34 0 0.68 0 0 Z " fill="#2A9F86" transform="translate(250,265)"/>
<path d="M0 0 C0.66 0.33 1.32 0.66 2 1 C1.67 1.66 1.34 2.32 1 3 C0.34 3 -0.32 3 -1 3 C-1 4.65 -1 6.3 -1 8 C-3.64 8.66 -6.28 9.32 -9 10 C-8.06409496 8.8944811 -7.12620142 7.79064547 -6.1875 6.6875 C-5.66542969 6.07261719 -5.14335937 5.45773438 -4.60546875 4.82421875 C-3.12827531 3.14575321 -1.59960869 1.56117966 0 0 Z " fill="#61A2D1" transform="translate(151,189)"/>
<path d="M0 0 C0.66 0 1.32 0 2 0 C1.47606294 5.86809507 0.23891142 10.54873741 -2 16 C-2.84062397 12.90226756 -3.08935201 10.21667249 -3 7 C-2.34 7 -1.68 7 -1 7 C-0.67 4.69 -0.34 2.38 0 0 Z " fill="#249C84" transform="translate(223,289)"/>
<path d="M0 0 C-0.33 0.99 -0.66 1.98 -1 3 C-2.85546875 3.66015625 -2.85546875 3.66015625 -5.1875 4.0625 C-8.92114836 4.77225105 -12.41445886 5.71288267 -16 7 C-15.67 6.01 -15.34 5.02 -15 4 C-12.63671875 2.83203125 -12.63671875 2.83203125 -9.6875 1.8125 C-8.23923828 1.29623047 -8.23923828 1.29623047 -6.76171875 0.76953125 C-4 0 -4 0 0 0 Z " fill="#43A398" transform="translate(295,252)"/>
<path d="M0 0 C0.43570312 0.37511719 0.87140625 0.75023437 1.3203125 1.13671875 C1.91585938 1.64847656 2.51140625 2.16023437 3.125 2.6875 C3.75921875 3.2340625 4.3934375 3.780625 5.046875 4.34375 C6.7972016 5.82802696 8.5798273 7.25833339 10.375 8.6875 C13 11 13 11 14 14 C8.96108318 12.56030948 7.13397703 9.98099785 4 6 C3.34 5.67 2.68 5.34 2 5 C2 4.34 2 3.68 2 3 C1.34 3 0.68 3 0 3 C0 2.01 0 1.02 0 0 Z " fill="#4993C9" transform="translate(299,141)"/>
<path d="M0 0 C1.98 0.99 1.98 0.99 4 2 C4.75 4.625 4.75 4.625 5 7 C4.01 7 3.02 7 2 7 C1.67 8.98 1.34 10.96 1 13 C0.67 13 0.34 13 0 13 C0 8.71 0 4.42 0 0 Z " fill="#21977A" transform="translate(363,204)"/>
<path d="M0 0 C0 3.26229641 -0.21770324 4.32655486 -2 7 C-7.22222222 11 -7.22222222 11 -11 11 C-7.37 7.37 -3.74 3.74 0 0 Z " fill="#5B9DCC" transform="translate(170,171)"/>
<path d="M0 0 C0.99 0.33 1.98 0.66 3 1 C3.125 3.375 3.125 3.375 3 6 C2.34 6.66 1.68 7.32 1 8 C0.01 8 -0.98 8 -2 8 C-1.125 1.125 -1.125 1.125 0 0 Z " fill="#328ED7" transform="translate(220,160)"/>
<path d="M0 0 C0.66 0 1.32 0 2 0 C0.59155282 3.21524305 -1.10344786 5.32183868 -3.625 7.75 C-4.57246094 8.67039062 -4.57246094 8.67039062 -5.5390625 9.609375 C-6.02117187 10.06828125 -6.50328125 10.5271875 -7 11 C-7.66 10.34 -8.32 9.68 -9 9 C-7.6875 7 -7.6875 7 -6 5 C-5.01 5 -4.02 5 -3 5 C-2.690625 4.360625 -2.38125 3.72125 -2.0625 3.0625 C-1 1 -1 1 0 0 Z " fill="#35A38F" transform="translate(373,281)"/>
<path d="M0 0 C-6.25172386 2.86964374 -11.09647445 4.51137226 -18 4 C-15.07089056 2.04726038 -12.91867709 1.24603637 -9.5625 0.3125 C-8.61503906 0.04050781 -7.66757812 -0.23148438 -6.69140625 -0.51171875 C-4.01081763 -0.99803744 -2.53712417 -0.89369149 0 0 Z " fill="#5DAA9E" transform="translate(284,221)"/>
<path d="M0 0 C-2.15454249 2.35716404 -4.19719874 3.78966144 -7.0625 5.1875 C-8.10083984 5.70376953 -8.10083984 5.70376953 -9.16015625 6.23046875 C-11 7 -11 7 -13 7 C-13 6.34 -13 5.68 -13 5 C-9.10648082 1.81175849 -5.18450403 -0.81007875 0 0 Z " fill="#3296A0" transform="translate(309,245)"/>
<path d="M0 0 C-1.4566677 1.14795006 -2.91538937 2.29329419 -4.375 3.4375 C-5.18710938 4.07558594 -5.99921875 4.71367188 -6.8359375 5.37109375 C-9 7 -9 7 -11 8 C-11 5.75 -11 5.75 -10 3 C-3.37579618 -1.68789809 -3.37579618 -1.68789809 0 0 Z " fill="#5EA0D0" transform="translate(234,117)"/>
<path d="M0 0 C4.60853797 0.72008406 8.67237409 2.31295939 13 4 C13 4.66 13 5.32 13 6 C11.39272673 5.77082032 9.78912584 5.51579198 8.1875 5.25 C7.29417969 5.11078125 6.40085937 4.9715625 5.48046875 4.828125 C2.49427342 3.831159 1.61619656 2.6417565 0 0 Z " fill="#5899CB" transform="translate(262,115)"/>
<path d="M0 0 C2.16874252 0.50603992 3.99967627 0.99983813 6 2 C6 2.66 6 3.32 6 4 C6.66 4 7.32 4 8 4 C8.33 5.65 8.66 7.3 9 9 C7.87105124 8.06725891 6.74699124 7.12859878 5.625 6.1875 C4.99851563 5.66542969 4.37203125 5.14335937 3.7265625 4.60546875 C2 3 2 3 0 0 Z " fill="#529EBA" transform="translate(181,340)"/>
<path d="M0 0 C4 0 4 0 5.75 1.375 C7 3 7 3 7 5 C7.66 5 8.32 5 9 5 C8.67 5.99 8.34 6.98 8 8 C6.85073734 7.04578192 5.70569459 6.08647955 4.5625 5.125 C3.92441406 4.59132813 3.28632813 4.05765625 2.62890625 3.5078125 C1 2 1 2 0 0 Z " fill="#4E99C1" transform="translate(173,332)"/>
<path d="M0 0 C0.99 0.33 1.98 0.66 3 1 C3 3.31 3 5.62 3 8 C1.35 6.68 -0.3 5.36 -2 4 C-1 1 -1 1 0 0 Z " fill="#3C93CD" transform="translate(166,320)"/>
<path d="M0 0 C1.32 0.33 2.64 0.66 4 1 C4 2.98 4 4.96 4 7 C2.02 7 0.04 7 -2 7 C-1.67 6.01 -1.34 5.02 -1 4 C0.485 4.99 0.485 4.99 2 6 C1.34 4.02 0.68 2.04 0 0 Z " fill="#2E9B98" transform="translate(207,313)"/>
<path d="M0 0 C-1.55603771 3.81936528 -3.95604931 6.26044438 -7 9 C-7.66 9 -8.32 9 -9 9 C-7.45665977 5.21180126 -4.44676575 0 0 0 Z " fill="#D7E8E5" transform="translate(239,275)"/>
<path d="M0 0 C1.14926266 0.95421808 2.29430541 1.91352045 3.4375 2.875 C4.07558594 3.40867187 4.71367187 3.94234375 5.37109375 4.4921875 C7 6 7 6 8 8 C6.68 8.33 5.36 8.66 4 9 C4 8.01 4 7.02 4 6 C3.34 6 2.68 6 2 6 C0 3 0 3 0 0 Z " fill="#4D9BC7" transform="translate(184,297)"/>
<path d="M0 0 C0.99 0.33 1.98 0.66 3 1 C0.36 3.64 -2.28 6.28 -5 9 C-5.33 8.01 -5.66 7.02 -6 6 C-5.34 6 -4.68 6 -4 6 C-4 5.01 -4 4.02 -4 3 C-2.1875 1.25 -2.1875 1.25 0 0 Z " fill="#3AA590" transform="translate(356,298)"/>
<path d="M0 0 C-0.33 0.99 -0.66 1.98 -1 3 C-2.70703125 3.765625 -2.70703125 3.765625 -4.8125 4.25 C-5.49957031 4.42015625 -6.18664062 4.5903125 -6.89453125 4.765625 C-9.19499821 5.02170666 -10.80629727 4.69015367 -13 4 C-11.39850114 3.32694982 -9.79368971 2.66177773 -8.1875 2 C-7.29417969 1.62875 -6.40085937 1.2575 -5.48046875 0.875 C-3 0 -3 0 0 0 Z " fill="#529FA6" transform="translate(298,215)"/>
<path d="M0 0 C0.66 0.33 1.32 0.66 2 1 C1.375 3.4375 1.375 3.4375 0 6 C-3.125 6.8125 -3.125 6.8125 -6 7 C-4.02 4.69 -2.04 2.38 0 0 Z " fill="#5FA0D1" transform="translate(187,154)"/>
<path d="M0 0 C0.66 0.33 1.32 0.66 2 1 C2 2.32 2 3.64 2 5 C0.35 5.66 -1.3 6.32 -3 7 C-2.625 4.0625 -2.625 4.0625 -2 1 C-1.34 0.67 -0.68 0.34 0 0 Z " fill="#3CA991" transform="translate(202,264)"/>
<path d="M0 0 C0.66 0 1.32 0 2 0 C1.65120368 3.25543229 0.97866739 4.01873107 -1.5625 6.25 C-2.366875 6.8275 -3.17125 7.405 -4 8 C-3.67 6.35 -3.34 4.7 -3 3 C-2.01 2.67 -1.02 2.34 0 2 C0 1.34 0 0.68 0 0 Z " fill="#458EC7" transform="translate(157,227)"/>
<path d="M0 0 C1.485 0.99 1.485 0.99 3 2 C3.1875 4.625 3.1875 4.625 3 7 C1.68 6.67 0.36 6.34 -1 6 C-1.042721 4.33388095 -1.04063832 2.66617115 -1 1 C-0.67 0.67 -0.34 0.34 0 0 Z " fill="#238ECF" transform="translate(330,220)"/>
<path d="M0 0 C1.32 0.33 2.64 0.66 4 1 C0.535 3.97 0.535 3.97 -3 7 C-3.33 5.68 -3.66 4.36 -4 3 C-3.01 3 -2.02 3 -1 3 C-0.67 2.01 -0.34 1.02 0 0 Z " fill="#5297CB" transform="translate(204,180)"/>
<path d="M0 0 C3.79588866 0.54226981 5.47211993 2.20127563 8 5 C7.67 5.99 7.34 6.98 7 8 C5.83035398 6.8572081 4.66435444 5.71068285 3.5 4.5625 C2.8503125 3.92441406 2.200625 3.28632813 1.53125 2.62890625 C0 1 0 1 0 0 Z " fill="#4C94C8" transform="translate(294,181)"/>
<path d="M0 0 C-0.375 1.9375 -0.375 1.9375 -1 4 C-1.99 4.495 -1.99 4.495 -3 5 C-3 4.34 -3 3.68 -3 3 C-3.66 3 -4.32 3 -5 3 C-5 3.66 -5 4.32 -5 5 C-5.66 5 -6.32 5 -7 5 C-5.64703851 0.94111554 -4.27479763 0 0 0 Z " fill="#3B91CF" transform="translate(184,202)"/>
<path d="M0 0 C-5.625 3 -5.625 3 -9 3 C-8.67 2.01 -8.34 1.02 -8 0 C-4.71303767 -0.79953138 -3.28976808 -1.09658936 0 0 Z " fill="#199A7C" transform="translate(271,381)"/>
<path d="M0 0 C2 2 2 2 2.125 4.625 C2.08375 5.40875 2.0425 6.1925 2 7 C0.02 5.35 -1.96 3.7 -4 2 C-3.34 1.67 -2.68 1.34 -2 1 C-1.34 1.33 -0.68 1.66 0 2 C0 1.34 0 0.68 0 0 Z " fill="#4C9DB2" transform="translate(196,350)"/>
<path d="M0 0 C2.64752004 2.57784846 4.94432065 4.91648098 7 8 C5.02 7.34 3.04 6.68 1 6 C0.67 4.02 0.34 2.04 0 0 Z " fill="#3BA18F" transform="translate(230,333)"/>
<path d="M0 0 C0.66 0.33 1.32 0.66 2 1 C-0.97 3.475 -0.97 3.475 -4 6 C-4.33 5.01 -4.66 4.02 -5 3 C-2.625 1.4375 -2.625 1.4375 0 0 Z " fill="#229D82" transform="translate(271,336)"/>
<path d="M0 0 C0.99 0.33 1.98 0.66 3 1 C-0.465 3.97 -0.465 3.97 -4 7 C-4 5.68 -4 4.36 -4 3 C-2.1875 1.1875 -2.1875 1.1875 0 0 Z " fill="#3DA693" transform="translate(328,326)"/>
<path d="M0 0 C0.99 0.33 1.98 0.66 3 1 C0.42215154 3.64752004 -1.91648098 5.94432065 -5 8 C-4.45773019 4.20411134 -2.79872437 2.52788007 0 0 Z " fill="#3CA892" transform="translate(336,318)"/>
<path d="M0 0 C0 3.10551666 -0.5393715 4.35261084 -2 7 C-3.32 6.67 -4.64 6.34 -6 6 C-4.02 4.02 -2.04 2.04 0 0 Z " fill="#4DA793" transform="translate(320,285)"/>
<path d="M0 0 C1.98 0.99 1.98 0.99 4 2 C3.625 3.9375 3.625 3.9375 3 6 C2.01 6.495 2.01 6.495 1 7 C0.67 4.69 0.34 2.38 0 0 Z " fill="#2A8CD1" transform="translate(149,263)"/>
<path d="M0 0 C2.5 1.8125 2.5 1.8125 5 4 C5 4.99 5 5.98 5 7 C4.34 7 3.68 7 3 7 C3 6.34 3 5.68 3 5 C2.01 4.67 1.02 4.34 0 4 C0 2.68 0 1.36 0 0 Z " fill="#4895CB" transform="translate(329,170)"/>
<path d="M0 0 C0.99 0.33 1.98 0.66 3 1 C3.6875 3.0625 3.6875 3.0625 4 5 C2.68 5.33 1.36 5.66 0 6 C0 4.02 0 2.04 0 0 Z " fill="#3B91CE" transform="translate(313,155)"/>
<path d="M0 0 C1.98 1.65 3.96 3.3 6 5 C5.01 5.33 4.02 5.66 3 6 C2.01 5.34 1.02 4.68 0 4 C0 2.68 0 1.36 0 0 Z " fill="#62A1CD" transform="translate(159,272)"/>
<path d="M0 0 C2.97 0.495 2.97 0.495 6 1 C6.33 2.32 6.66 3.64 7 5 C4.11424181 4.60196439 3.17810487 4.20990931 1.25 1.9375 C0.8375 1.298125 0.425 0.65875 0 0 Z " fill="#3C8FD2" transform="translate(273,121)"/>
</svg>
